<?xml version="1.0" encoding="iso-8859-1"?>
<!-- Generator: Adobe Illustrator 19.0.0, SVG Export Plug-In . SVG Version: 6.00 Build 0)  -->
<svg xmlns="http://www.w3.org/2000/svg" version="1.1" id="Layer_1" x="0px" y="0px" viewBox="0 0 407.007 407.007"
     style="enable-background:new 0 0 407.007 407.007;" xml:space="preserve" width="512" height="512">
<g>
	<path style="fill:#F95428;"
          d="M399.507,129.157v51.64c-31.98,0-59.24,20.19-69.73,48.52h-0.01c-2.98-8.04-4.61-16.73-4.61-25.81   C325.157,162.447,358.447,129.157,399.507,129.157z"/>
    <path style="fill:#F95428;"
          d="M77.237,177.687c2.98,8.04,4.61,16.74,4.61,25.82c0,41.06-33.28,74.34-74.34,74.34v-51.63   c31.98,0,59.23-20.2,69.72-48.53H77.237z"/>
    <path style="fill:#F7B239;"
          d="M77.237,177.687h-0.01c-10.49,28.33-37.74,48.53-69.72,48.53v-97.06   C39.487,129.157,66.747,149.347,77.237,177.687z"/>
    <path style="fill:#F7B239;"
          d="M399.507,180.797v97.05c-31.98,0-59.25-20.19-69.74-48.53h0.01   C340.267,200.987,367.527,180.797,399.507,180.797z"/>
    <path style="fill:#F7B239;"
          d="M163.507,88.587v229.83c-47.54-16.53-81.66-61.74-81.66-114.91   C81.847,150.327,115.967,105.117,163.507,88.587z"/>
    <path style="fill:#E09B2D;"
          d="M122.345,203.507c0-36.322,15.924-68.918,41.162-91.206V88.587   c-47.54,16.53-81.66,61.74-81.66,114.92c0,53.17,34.12,98.38,81.66,114.91v-23.714   C138.269,272.417,122.345,239.822,122.345,203.507z"/>
    <path style="fill:#F7B239;"
          d="M325.157,203.507c0,53.17-34.13,98.39-81.67,114.92V88.577   C291.027,105.107,325.157,150.327,325.157,203.507z"/>
    <path style="fill:#F95428;"
          d="M243.487,88.577v229.85c-12.52,4.36-25.97,6.73-39.98,6.73s-27.47-2.37-40-6.74V88.587v-0.01   c12.53-4.36,25.99-6.73,40-6.73S230.967,84.217,243.487,88.577z"/>
    <path style="fill:#FFFFFF;"
          d="M274.316,279.702c-1.879,0-3.76-0.702-5.217-2.112c-2.976-2.882-3.052-7.63-0.17-10.605   c16.591-17.13,25.728-39.673,25.728-63.478c0-20.132-6.807-39.993-19.166-55.924c-2.539-3.273-1.944-7.984,1.328-10.523   c3.275-2.538,7.983-1.944,10.523,1.328c14.39,18.549,22.314,41.675,22.314,65.119c0,27.721-10.638,53.97-29.952,73.913   C278.233,278.938,276.276,279.702,274.316,279.702z M264.351,133.312c-4.142,0-7.505-3.357-7.505-7.5s3.353-7.5,7.495-7.5h0.01   c4.143,0,7.5,3.357,7.5,7.5S268.493,133.312,264.351,133.312z M182.22,114.646c-3.445,0-6.549-2.389-7.318-5.893   c-0.889-4.046,1.67-8.046,5.716-8.935c12.412-2.729,25.59-3.196,38.174-1.379c4.1,0.592,6.943,4.395,6.352,8.494   s-4.403,6.942-8.494,6.352c-10.808-1.56-22.154-1.157-32.813,1.184C183.294,114.588,182.752,114.646,182.22,114.646z"/>
    <path style="fill:#FFFFFF;"
          d="M377.062,259.429c-4.143,0-7.5-3.357-7.5-7.5v-46.498c0-4.143,3.357-7.5,7.5-7.5s7.5,3.357,7.5,7.5   v46.498C384.562,256.071,381.204,259.429,377.062,259.429z"/>
    <path style="fill:#FFFFFF;"
          d="M377.062,170.934c-4.143,0-7.5-3.357-7.5-7.5v-7.5c0-4.143,3.357-7.5,7.5-7.5s7.5,3.357,7.5,7.5v7.5   C384.562,167.576,381.204,170.934,377.062,170.934z"/>
    <path style="fill:#333333;"
          d="M407.003,129.159c0-4.143-3.357-7.5-7.5-7.5c-31.466,0-58.824,17.86-72.516,43.965   c-16.226-52.791-65.443-91.276-123.483-91.276c-58.041,0-107.257,38.485-123.484,91.276c-13.692-26.105-41.05-43.965-72.516-43.965   c-4.143,0-7.5,3.357-7.5,7.5H0l0.004,148.689c0,4.143,3.357,7.5,7.5,7.5c31.466,0,58.824-17.86,72.516-43.966   c16.227,52.79,65.443,91.275,123.484,91.275c58.04,0,107.256-38.485,123.483-91.275c13.692,26.105,41.05,43.966,72.516,43.966   c4.143,0,7.5-3.357,7.5-7.5h0.004L407.003,129.159z M392.003,137.077v36.58c-23.863,2.219-45.491,14.899-59.195,34.094   c-0.089-1.406-0.15-2.819-0.15-4.248C332.658,169.181,358.662,140.817,392.003,137.077z M69.151,177.705   c-9.367,22.325-30.293,37.86-54.147,40.582v-81.209C39.464,139.821,59.959,155.826,69.151,177.705z M15.004,269.931v-36.58   c23.863-2.219,45.491-14.899,59.195-34.095c0.089,1.406,0.15,2.82,0.15,4.249C74.349,237.827,48.345,266.19,15.004,269.931z    M89.349,203.504c0-46.007,27.361-85.741,66.663-103.795v207.59C116.709,289.244,89.349,249.511,89.349,203.504z M171.012,312.94   V94.067c10.303-3.064,21.207-4.719,32.492-4.719c11.282,0,22.184,1.653,32.484,4.716v218.877   c-10.301,3.063-21.202,4.716-32.484,4.716C192.219,317.658,181.315,316.004,171.012,312.94z M250.988,307.302V99.705   c39.306,18.053,66.67,57.788,66.67,103.799S290.294,289.249,250.988,307.302z M337.856,229.302   c9.366-22.325,30.292-37.859,54.147-40.581v81.209C367.543,267.187,347.047,251.182,337.856,229.302z"/>
</g>















</svg>
