<?xml version="1.0" encoding="iso-8859-1"?>
<!-- Generator: Adobe Illustrator 19.0.0, SVG Export Plug-In . SVG Version: 6.00 Build 0)  -->
<svg version="1.1" id="Capa_1" xmlns="http://www.w3.org/2000/svg" x="0px" y="0px"
     viewBox="0 0 512 512" style="enable-background:new 0 0 512 512;" xml:space="preserve">
<path style="fill:#303C42;" d="M295.313,256l191.021-140.75c2.271-1.677,3.792-4.198,4.208-7c0.438-2.802-0.292-5.656-1.958-7.927
	C442.063,37.5,363.104,0,277.334,0c-141.167,0-256,114.844-256,256s114.833,256,256,256c85.771,0,164.729-37.5,211.25-100.323
	c1.667-2.271,2.396-5.125,1.958-7.927c-0.417-2.802-1.938-5.323-4.208-7L295.313,256z"/>
    <path style="fill:#FDD835;" d="M277.334,490.667C147.938,490.667,42.667,385.396,42.667,256S147.938,21.333,277.334,21.333
	c73.917,0,144.688,31.667,187.5,83.26L271,247.417c-2.729,2.01-4.333,5.198-4.333,8.583c0,3.385,1.604,6.573,4.333,8.583
	l193.833,142.823C422.021,459,351.25,490.667,277.334,490.667z"/>
    <path style="opacity:0.1;enable-background:new    ;" d="M324.5,416C195.104,416,89.834,310.729,89.834,181.333
	c0-30.112,5.905-58.818,16.284-85.294C66.89,138.001,42.667,194.161,42.667,256c0,129.396,105.271,234.667,234.667,234.667
	c73.917,0,144.688-31.667,187.5-83.26l-25.266-18.616C404.879,406.083,365.265,416,324.5,416z"/>
    <circle style="fill:#303C42;" cx="266.667" cy="117.333" r="32"/>
    <linearGradient id="SVGID_1_" gradientUnits="userSpaceOnUse" x1="-44.551" y1="639.614" x2="-22.7378" y2="629.4438"
                    gradientTransform="matrix(21.3333 0 0 -21.3333 996.3334 13791.667)">
	<stop offset="0" style="stop-color:#FFFFFF;stop-opacity:0.2"/>
        <stop offset="1" style="stop-color:#FFFFFF;stop-opacity:0"/>
</linearGradient>
    <path style="fill:url(#SVGID_1_);" d="M295.313,256l191.021-140.75c2.271-1.677,3.792-4.198,4.208-7
	c0.438-2.802-0.292-5.656-1.958-7.927C442.063,37.5,363.104,0,277.334,0c-141.167,0-256,114.844-256,256s114.833,256,256,256
	c85.771,0,164.729-37.5,211.25-100.323c1.667-2.271,2.396-5.125,1.958-7.927c-0.417-2.802-1.938-5.323-4.208-7L295.313,256z"/>
    <g>
</g>
    <g>
</g>
    <g>
</g>
    <g>
</g>
    <g>
</g>
    <g>
</g>
    <g>
</g>
    <g>
</g>
    <g>
</g>
    <g>
</g>
    <g>
</g>
    <g>
</g>
    <g>
</g>
    <g>
</g>
    <g>
</g>
</svg>
