<?xml version="1.0" encoding="iso-8859-1"?>
<!-- Generator: Adobe Illustrator 19.1.0, SVG Export Plug-In . SVG Version: 6.00 Build 0)  -->
<svg xmlns="http://www.w3.org/2000/svg" version="1.1" id="Capa_1" x="0px" y="0px" viewBox="0 0 63 63"
     style="enable-background:new 0 0 63 63;" xml:space="preserve" width="512px" height="512px">
<g>
	<g id="group-22svg">
		<path id="path-1_14_"
              d="M33.583,63c-17.369,0-31.5-14.131-31.5-31.5S16.214,0,33.583,0c11.081,0,21.475,5.935,27.125,15.489    c0.421,0.711,0.187,1.629-0.523,2.052l-23.567,14.03l22.837,15.197c0.689,0.458,0.876,1.387,0.42,2.076    C54.017,57.708,44.188,63,33.583,63z M33.583,3c-15.715,0-28.5,12.785-28.5,28.5S17.868,60,33.583,60    c9.096,0,17.561-4.303,22.933-11.584L32.974,32.748c-0.429-0.285-0.682-0.771-0.669-1.286c0.014-0.515,0.29-0.988,0.732-1.251    L57.33,15.749C52.075,7.849,43.11,3,33.583,3z"
              fill="#FFFFFF"/>
        <path id="path-2_12_"
              d="M30.682,22.911c-3.461,0-6.276-2.815-6.276-6.275c0-3.461,2.815-6.276,6.276-6.276    c3.46,0,6.275,2.815,6.275,6.276C36.957,20.096,34.142,22.911,30.682,22.911z M30.682,13.36c-1.807,0-3.276,1.469-3.276,3.276    c0,1.806,1.469,3.275,3.276,3.275c1.806,0,3.275-1.469,3.275-3.275C33.957,14.829,32.488,13.36,30.682,13.36z"
              fill="#FFFFFF"/>
	</g>
</g>
    <g>
</g>
    <g>
</g>
    <g>
</g>
    <g>
</g>
    <g>
</g>
    <g>
</g>
    <g>
</g>
    <g>
</g>
    <g>
</g>
    <g>
</g>
    <g>
</g>
    <g>
</g>
    <g>
</g>
    <g>
</g>
    <g>
</g>
</svg>
