<?xml version="1.0" encoding="iso-8859-1"?>
<!-- Generator: Adobe Illustrator 19.0.0, SVG Export Plug-In . SVG Version: 6.00 Build 0)  -->
<svg version="1.1" id="Layer_1" xmlns="http://www.w3.org/2000/svg" x="0px" y="0px"
     viewBox="0 0 503.322 503.322" style="enable-background:new 0 0 503.322 503.322;" xml:space="preserve">
<g transform="translate(1 1)">
	<g>
		<path style="fill:#FFDD09;" d="M372.153,458.932h121.492v-69.424H372.153V458.932z"/>
        <path style="fill:#FFDD09;" d="M432.898,389.508h60.746v-69.424h-60.746V389.508z"/>
        <path style="fill:#FFDD09;" d="M372.153,320.085h121.492v-69.424H372.153V320.085z"/>
        <path style="fill:#FFDD09;" d="M432.898,250.661h60.746v-69.424h-60.746V250.661z"/>
	</g>
    <path style="fill:#FD9808;" d="M7.678,458.932h121.492v-69.424H7.678V458.932z"/>
    <path style="fill:#FFDD09;" d="M7.678,389.508h60.746v-69.424H7.678V389.508z"/>
    <path style="fill:#FD9808;" d="M7.678,320.085h121.492v-69.424H7.678V320.085z"/>
    <g>
		<path style="fill:#FFDD09;" d="M7.678,250.661h60.746v-69.424H7.678V250.661z"/>
        <path style="fill:#FFDD09;" d="M7.678,181.237h121.492v-69.424H7.678V181.237z"/>
        <path style="fill:#FFDD09;" d="M7.678,111.814h60.746V42.39H7.678V111.814z"/>
	</g>
    <path style="fill:#FFFFFF;" d="M7.678,458.932h26.034V42.39H7.678V458.932z"/>
    <path style="fill:#FD9808;" d="M467.61,458.932h26.034V181.237H467.61V458.932z"/>
    <path style="fill:#FFDD09;" d="M129.169,458.932h121.492v-69.424H129.169V458.932z"/>
    <g>
		<path style="fill:#FD9808;" d="M250.661,458.932h121.492v-69.424H250.661V458.932z"/>
        <path style="fill:#FD9808;" d="M68.424,389.508h121.492v-69.424H68.424V389.508z"/>
	</g>
    <path style="fill:#FFDD09;" d="M189.915,389.508h121.492v-69.424H189.915V389.508z"/>
    <path style="fill:#FD9808;" d="M311.407,389.508h121.492v-69.424H311.407V389.508z"/>
    <path style="fill:#FFDD09;" d="M129.169,320.085h121.492v-69.424H129.169V320.085z"/>
    <g>
		<path style="fill:#FD9808;" d="M250.661,320.085h121.492v-69.424H250.661V320.085z"/>
        <path style="fill:#FD9808;" d="M68.424,250.661h121.492v-69.424H68.424V250.661z"/>
	</g>
    <path style="fill:#FFDD09;" d="M189.915,250.661h121.492v-69.424H189.915V250.661z"/>
    <g>
		<path style="fill:#FD9808;" d="M311.407,250.661h121.492v-69.424H311.407V250.661z"/>
        <path style="fill:#FD9808;" d="M129.169,181.237h121.492v-69.424H129.169V181.237z"/>
	</g>
    <path style="fill:#FFDD09;" d="M250.661,181.237h121.492v-69.424H250.661V181.237z"/>
    <path style="fill:#FD9808;" d="M68.424,111.814h121.492V42.39H68.424V111.814z"/>
    <path d="M129.169,467.61H7.678c-5.207,0-8.678-3.471-8.678-8.678v-69.424c0-5.207,3.471-8.678,8.678-8.678h121.492
		c5.207,0,8.678,3.471,8.678,8.678v69.424C137.847,464.139,134.376,467.61,129.169,467.61z M16.356,450.254h104.136v-52.068H16.356
		V450.254z"/>
    <path d="M250.661,467.61H129.169c-5.207,0-8.678-3.471-8.678-8.678v-69.424c0-5.207,3.471-8.678,8.678-8.678h121.492
		c5.207,0,8.678,3.471,8.678,8.678v69.424C259.339,464.139,255.868,467.61,250.661,467.61z M137.847,450.254h104.136v-52.068
		H137.847V450.254z"/>
    <path d="M372.153,467.61H250.661c-5.207,0-8.678-3.471-8.678-8.678v-69.424c0-5.207,3.471-8.678,8.678-8.678h121.492
		c5.207,0,8.678,3.471,8.678,8.678v69.424C380.831,464.139,377.359,467.61,372.153,467.61z M259.339,450.254h104.136v-52.068
		H259.339V450.254z"/>
    <path d="M493.644,467.61H372.153c-5.207,0-8.678-3.471-8.678-8.678v-69.424c0-5.207,3.471-8.678,8.678-8.678h121.492
		c5.207,0,8.678,3.471,8.678,8.678v69.424C502.322,464.139,498.851,467.61,493.644,467.61z M380.831,450.254h104.136v-52.068
		H380.831V450.254z"/>
    <path d="M68.424,398.186H7.678c-5.207,0-8.678-3.471-8.678-8.678v-69.424c0-5.207,3.471-8.678,8.678-8.678h60.746
		c5.207,0,8.678,3.471,8.678,8.678v69.424C77.102,394.715,73.631,398.186,68.424,398.186z M16.356,380.831h43.39v-52.068h-43.39
		V380.831z"/>
    <path d="M493.644,398.186h-60.746c-5.207,0-8.678-3.471-8.678-8.678v-69.424c0-5.207,3.471-8.678,8.678-8.678h60.746
		c5.207,0,8.678,3.471,8.678,8.678v69.424C502.322,394.715,498.851,398.186,493.644,398.186z M441.576,380.831h43.39v-52.068h-43.39
		V380.831z"/>
    <path d="M189.915,398.186H68.424c-5.207,0-8.678-3.471-8.678-8.678v-69.424c0-5.207,3.471-8.678,8.678-8.678h121.492
		c5.207,0,8.678,3.471,8.678,8.678v69.424C198.593,394.715,195.122,398.186,189.915,398.186z M77.102,380.831h104.136v-52.068
		H77.102V380.831z"/>
    <path d="M311.407,398.186H189.915c-5.207,0-8.678-3.471-8.678-8.678v-69.424c0-5.207,3.471-8.678,8.678-8.678h121.492
		c5.207,0,8.678,3.471,8.678,8.678v69.424C320.085,394.715,316.614,398.186,311.407,398.186z M198.593,380.831h104.136v-52.068
		H198.593V380.831z"/>
    <path d="M432.898,398.186H311.407c-5.207,0-8.678-3.471-8.678-8.678v-69.424c0-5.207,3.471-8.678,8.678-8.678h121.492
		c5.207,0,8.678,3.471,8.678,8.678v69.424C441.576,394.715,438.105,398.186,432.898,398.186z M320.085,380.831H424.22v-52.068
		H320.085V380.831z"/>
    <path d="M129.169,328.763H7.678c-5.207,0-8.678-3.471-8.678-8.678v-69.424c0-5.207,3.471-8.678,8.678-8.678h121.492
		c5.207,0,8.678,3.471,8.678,8.678v69.424C137.847,325.292,134.376,328.763,129.169,328.763z M16.356,311.407h104.136v-52.068
		H16.356V311.407z"/>
    <path d="M250.661,328.763H129.169c-5.207,0-8.678-3.471-8.678-8.678v-69.424c0-5.207,3.471-8.678,8.678-8.678h121.492
		c5.207,0,8.678,3.471,8.678,8.678v69.424C259.339,325.292,255.868,328.763,250.661,328.763z M137.847,311.407h104.136v-52.068
		H137.847V311.407z"/>
    <path d="M372.153,328.763H250.661c-5.207,0-8.678-3.471-8.678-8.678v-69.424c0-5.207,3.471-8.678,8.678-8.678h121.492
		c5.207,0,8.678,3.471,8.678,8.678v69.424C380.831,325.292,377.359,328.763,372.153,328.763z M259.339,311.407h104.136v-52.068
		H259.339V311.407z"/>
    <path d="M493.644,328.763H372.153c-5.207,0-8.678-3.471-8.678-8.678v-69.424c0-5.207,3.471-8.678,8.678-8.678h121.492
		c5.207,0,8.678,3.471,8.678,8.678v69.424C502.322,325.292,498.851,328.763,493.644,328.763z M380.831,311.407h104.136v-52.068
		H380.831V311.407z"/>
    <path d="M68.424,259.339H7.678c-5.207,0-8.678-3.471-8.678-8.678v-69.424c0-5.207,3.471-8.678,8.678-8.678h60.746
		c5.207,0,8.678,3.471,8.678,8.678v69.424C77.102,255.868,73.631,259.339,68.424,259.339z M16.356,241.983h43.39v-52.068h-43.39
		V241.983z"/>
    <path d="M493.644,259.339h-60.746c-5.207,0-8.678-3.471-8.678-8.678v-69.424c0-5.207,3.471-8.678,8.678-8.678h60.746
		c5.207,0,8.678,3.471,8.678,8.678v69.424C502.322,255.868,498.851,259.339,493.644,259.339z M441.576,241.983h43.39v-52.068h-43.39
		V241.983z"/>
    <path d="M189.915,259.339H68.424c-5.207,0-8.678-3.471-8.678-8.678v-69.424c0-5.207,3.471-8.678,8.678-8.678h121.492
		c5.207,0,8.678,3.471,8.678,8.678v69.424C198.593,255.868,195.122,259.339,189.915,259.339z M77.102,241.983h104.136v-52.068
		H77.102V241.983z"/>
    <path d="M311.407,259.339H189.915c-5.207,0-8.678-3.471-8.678-8.678v-69.424c0-5.207,3.471-8.678,8.678-8.678h121.492
		c5.207,0,8.678,3.471,8.678,8.678v69.424C320.085,255.868,316.614,259.339,311.407,259.339z M198.593,241.983h104.136v-52.068
		H198.593V241.983z"/>
    <path d="M432.898,259.339H311.407c-5.207,0-8.678-3.471-8.678-8.678v-69.424c0-5.207,3.471-8.678,8.678-8.678h121.492
		c5.207,0,8.678,3.471,8.678,8.678v69.424C441.576,255.868,438.105,259.339,432.898,259.339z M320.085,241.983H424.22v-52.068
		H320.085V241.983z"/>
    <path d="M129.169,189.915H7.678c-5.207,0-8.678-3.471-8.678-8.678v-69.424c0-5.207,3.471-8.678,8.678-8.678h121.492
		c5.207,0,8.678,3.471,8.678,8.678v69.424C137.847,186.444,134.376,189.915,129.169,189.915z M16.356,172.559h104.136v-52.068
		H16.356V172.559z"/>
    <path d="M250.661,189.915H129.169c-5.207,0-8.678-3.471-8.678-8.678v-69.424c0-5.207,3.471-8.678,8.678-8.678h121.492
		c5.207,0,8.678,3.471,8.678,8.678v69.424C259.339,186.444,255.868,189.915,250.661,189.915z M137.847,172.559h104.136v-52.068
		H137.847V172.559z"/>
    <path d="M372.153,189.915H250.661c-5.207,0-8.678-3.471-8.678-8.678v-69.424c0-5.207,3.471-8.678,8.678-8.678h121.492
		c5.207,0,8.678,3.471,8.678,8.678v69.424C380.831,186.444,377.359,189.915,372.153,189.915z M259.339,172.559h104.136v-52.068
		H259.339V172.559z"/>
    <path d="M68.424,120.492H7.678c-5.207,0-8.678-3.471-8.678-8.678V42.39c0-5.207,3.471-8.678,8.678-8.678h60.746
		c5.207,0,8.678,3.471,8.678,8.678v69.424C77.102,117.02,73.631,120.492,68.424,120.492z M16.356,103.136h43.39V51.068h-43.39
		V103.136z"/>
    <path d="M189.915,120.492H68.424c-4.339,0-8.678-3.471-8.678-8.678V42.39c0-5.207,3.471-8.678,8.678-8.678h121.492
		c5.207,0,8.678,3.471,8.678,8.678v69.424C198.593,117.02,195.122,120.492,189.915,120.492z M77.102,103.136h104.136V51.068H77.102
		V103.136z"/>
</g>
    <g>
</g>
    <g>
</g>
    <g>
</g>
    <g>
</g>
    <g>
</g>
    <g>
</g>
    <g>
</g>
    <g>
</g>
    <g>
</g>
    <g>
</g>
    <g>
</g>
    <g>
</g>
    <g>
</g>
    <g>
</g>
    <g>
</g>
</svg>
